HIERARCHY
ROOT Hips
{
	OFFSET 0.000000 97.167313 0.000000
	CHANNELS 6 Xposition Yposition Zposition Xrotation Yrotation Zrotation
	JOINT Spine
	{
		OFFSET 0.000000 13.784798 0.064400
		CHANNELS 3 Xrotation Yrotation Zrotation
		JOINT Spine1
		{
			OFFSET 0.000000 12.037903 0.404700
			CHANNELS 3 Xrotation Yrotation Zrotation
			JOINT Spine2
			{
				OFFSET 0.000000 17.795601 0.420200
				CHANNELS 3 Xrotation Yrotation Zrotation
				JOINT Neck
				{
					OFFSET 0.000000 39.131302 11.954600
					CHANNELS 3 Xrotation Yrotation Zrotation
					JOINT Head
					{
						OFFSET 0.000000 14.456192 15.627699
						CHANNELS 3 Xrotation Yrotation Zrotation
						JOINT HeadTop_End
						{
							OFFSET 0.000000 15.703506 7.603401
							CHANNELS 3 Xrotation Yrotation Zrotation
							End Site
							{
								OFFSET 0.000000 17.447403 0.000000
							}
						}
					}
				}
				JOINT LeftShoulder
				{
					OFFSET 17.399500 24.608795 1.168800
					CHANNELS 3 Xrotation Yrotation Zrotation
					JOINT LeftArm
					{
						OFFSET 18.980635 5.765305 1.818600
						CHANNELS 3 Xrotation Yrotation Zrotation
						JOINT LeftForeArm
						{
							OFFSET 49.290169 0.000000 0.000000
							CHANNELS 3 Xrotation Yrotation Zrotation
							JOINT LeftHand
							{
								OFFSET 31.562012 0.000000 0.000000
								CHANNELS 3 Xrotation Yrotation Zrotation
								JOINT LeftHandThumb1
								{
									OFFSET 6.133995 -4.388519 7.076070
									CHANNELS 3 Xrotation Yrotation Zrotation
									JOINT LeftHandThumb2
									{
										OFFSET 6.037666 -3.485840 3.485847
										CHANNELS 3 Xrotation Yrotation Zrotation
										JOINT LeftHandThumb3
										{
											OFFSET 6.496506 -3.750763 3.750761
											CHANNELS 3 Xrotation Yrotation Zrotation
											JOINT LeftHandThumb4
											{
												OFFSET 5.616882 -3.242905 3.242910
												CHANNELS 3 Xrotation Yrotation Zrotation
												End Site
												{
													OFFSET -1.254608 7.132141 0.375429
												}
											}
										}
									}
								}
								JOINT LeftHandPinky1
								{
									OFFSET 18.920792 -0.453171 -11.426712
									CHANNELS 3 Xrotation Yrotation Zrotation
									JOINT LeftHandPinky2
									{
										OFFSET 4.919586 0.000000 0.000000
										CHANNELS 3 Xrotation Yrotation Zrotation
										JOINT LeftHandPinky3
										{
											OFFSET 5.233047 0.000000 0.000000
											CHANNELS 3 Xrotation Yrotation Zrotation
											JOINT LeftHandPinky4
											{
												OFFSET 5.571716 0.000000 0.000000
												CHANNELS 3 Xrotation Yrotation Zrotation
												End Site
												{
													OFFSET -3.459808 4.342407 -0.466164
												}
											}
										}
									}
								}
								JOINT LeftHandRing1
								{
									OFFSET 22.726120 -0.094986 -6.500475
									CHANNELS 3 Xrotation Yrotation Zrotation
									JOINT LeftHandRing2
									{
										OFFSET 6.408615 0.000000 0.000000
										CHANNELS 3 Xrotation Yrotation Zrotation
										JOINT LeftHandRing3
										{
											OFFSET 6.150223 0.000000 0.000000
											CHANNELS 3 Xrotation Yrotation Zrotation
											JOINT LeftHandRing4
											{
												OFFSET 6.145386 0.000000 0.000000
												CHANNELS 3 Xrotation Yrotation Zrotation
												End Site
												{
													OFFSET -3.671402 4.923981 -0.202372
												}
											}
										}
									}
								}
								JOINT LeftHandMiddle1
								{
									OFFSET 23.373947 0.000000 0.000001
									CHANNELS 3 Xrotation Yrotation Zrotation
									JOINT LeftHandMiddle2
									{
										OFFSET 6.996567 0.000000 0.000000
										CHANNELS 3 Xrotation Yrotation Zrotation
										JOINT LeftHandMiddle3
										{
											OFFSET 7.015945 0.000000 0.000000
											CHANNELS 3 Xrotation Yrotation Zrotation
											JOINT LeftHandMiddle4
											{
												OFFSET 7.721573 0.000000 0.000000
												CHANNELS 3 Xrotation Yrotation Zrotation
												End Site
												{
													OFFSET -4.651108 6.158463 0.251582
												}
											}
										}
									}
								}
								JOINT LeftHandIndex1
								{
									OFFSET 21.310577 -0.490082 6.209344
									CHANNELS 3 Xrotation Yrotation Zrotation
									JOINT LeftHandIndex2
									{
										OFFSET 7.536453 0.000000 0.000000
										CHANNELS 3 Xrotation Yrotation Zrotation
										JOINT LeftHandIndex3
										{
											OFFSET 7.512344 0.000000 0.000000
											CHANNELS 3 Xrotation Yrotation Zrotation
											JOINT LeftHandIndex4
											{
												OFFSET 10.212402 0.000000 0.000001
												CHANNELS 3 Xrotation Yrotation Zrotation
												End Site
												{
													OFFSET -5.180801 8.690506 1.388433
												}
											}
										}
									}
								}
							}
						}
					}
				}
				JOINT RightShoulder
				{
					OFFSET -17.399500 24.608795 1.168800
					CHANNELS 3 Xrotation Yrotation Zrotation
					JOINT RightArm
					{
						OFFSET -18.980635 5.765305 1.818600
						CHANNELS 3 Xrotation Yrotation Zrotation
						JOINT RightForeArm
						{
							OFFSET -49.290169 0.000000 0.000000
							CHANNELS 3 Xrotation Yrotation Zrotation
							JOINT RightHand
							{
								OFFSET -31.562012 0.000000 0.000000
								CHANNELS 3 Xrotation Yrotation Zrotation
								JOINT RightHandThumb1
								{
									OFFSET -6.133995 -4.388519 7.076070
									CHANNELS 3 Xrotation Yrotation Zrotation
									JOINT RightHandThumb2
									{
										OFFSET -6.037666 -3.485840 3.485847
										CHANNELS 3 Xrotation Yrotation Zrotation
										JOINT RightHandThumb3
										{
											OFFSET -6.496506 -3.750763 3.750761
											CHANNELS 3 Xrotation Yrotation Zrotation
											JOINT RightHandThumb4
											{
												OFFSET -5.616882 -3.242905 3.242910
												CHANNELS 3 Xrotation Yrotation Zrotation
												End Site
												{
													OFFSET 1.254608 7.132141 0.375429
												}
											}
										}
									}
								}
								JOINT RightHandIndex1
								{
									OFFSET -21.310577 -0.490082 6.209344
									CHANNELS 3 Xrotation Yrotation Zrotation
									JOINT RightHandIndex2
									{
										OFFSET -7.536453 0.000000 0.000000
										CHANNELS 3 Xrotation Yrotation Zrotation
										JOINT RightHandIndex3
										{
											OFFSET -7.512344 0.000000 0.000000
											CHANNELS 3 Xrotation Yrotation Zrotation
											JOINT RightHandIndex4
											{
												OFFSET -10.212402 0.000000 0.000001
												CHANNELS 3 Xrotation Yrotation Zrotation
												End Site
												{
													OFFSET 5.180801 8.690506 1.388433
												}
											}
										}
									}
								}
								JOINT RightHandMiddle1
								{
									OFFSET -23.373947 0.000000 0.000001
									CHANNELS 3 Xrotation Yrotation Zrotation
									JOINT RightHandMiddle2
									{
										OFFSET -6.996567 0.000000 0.000000
										CHANNELS 3 Xrotation Yrotation Zrotation
										JOINT RightHandMiddle3
										{
											OFFSET -7.015945 0.000000 0.000000
											CHANNELS 3 Xrotation Yrotation Zrotation
											JOINT RightHandMiddle4
											{
												OFFSET -7.721573 0.000000 0.000000
												CHANNELS 3 Xrotation Yrotation Zrotation
												End Site
												{
													OFFSET 4.651108 6.158463 0.251582
												}
											}
										}
									}
								}
								JOINT RightHandRing1
								{
									OFFSET -22.726120 -0.094986 -6.500475
									CHANNELS 3 Xrotation Yrotation Zrotation
									JOINT RightHandRing2
									{
										OFFSET -6.408615 0.000000 0.000000
										CHANNELS 3 Xrotation Yrotation Zrotation
										JOINT RightHandRing3
										{
											OFFSET -6.150223 0.000000 0.000000
											CHANNELS 3 Xrotation Yrotation Zrotation
											JOINT RightHandRing4
											{
												OFFSET -6.145386 0.000000 0.000000
												CHANNELS 3 Xrotation Yrotation Zrotation
												End Site
												{
													OFFSET 3.671402 4.923981 -0.202372
												}
											}
										}
									}
								}
								JOINT RightHandPinky1
								{
									OFFSET -18.920792 -0.453171 -11.426712
									CHANNELS 3 Xrotation Yrotation Zrotation
									JOINT RightHandPinky2
									{
										OFFSET -4.919586 0.000000 0.000000
										CHANNELS 3 Xrotation Yrotation Zrotation
										JOINT RightHandPinky3
										{
											OFFSET -5.233047 0.000000 0.000000
											CHANNELS 3 Xrotation Yrotation Zrotation
											JOINT RightHandPinky4
											{
												OFFSET -5.571716 0.000000 0.000000
												CHANNELS 3 Xrotation Yrotation Zrotation
												End Site
												{
													OFFSET 3.459808 4.342407 -0.466164
												}
											}
										}
									}
								}
							}
						}
					}
				}
			}
		}
	}
	JOINT LeftUpLeg
	{
		OFFSET 19.899099 -7.885101 -3.429500
		CHANNELS 3 Xrotation Yrotation Zrotation
		JOINT LeftLeg
		{
			OFFSET 1.745560 -36.997807 10.304700
			CHANNELS 3 Xrotation Yrotation Zrotation
			JOINT LeftFoot
			{
				OFFSET -1.745558 -29.803308 -13.615400
				CHANNELS 3 Xrotation Yrotation Zrotation
				JOINT LeftToeBase
				{
					OFFSET 1.181900 -18.539904 15.226099
					CHANNELS 3 Xrotation Yrotation Zrotation
					JOINT LeftToe_End
					{
						OFFSET -0.863701 1.402801 16.534700
						CHANNELS 3 Xrotation Yrotation Zrotation
						End Site
						{
							OFFSET 0.000000 16.616566 0.000000
						}
					}
				}
			}
		}
	}
	JOINT RightUpLeg
	{
		OFFSET -19.899099 -7.885101 -3.429500
		CHANNELS 3 Xrotation Yrotation Zrotation
		JOINT RightLeg
		{
			OFFSET -1.745560 -36.997807 10.304700
			CHANNELS 3 Xrotation Yrotation Zrotation
			JOINT RightFoot
			{
				OFFSET 1.745558 -29.803308 -13.615400
				CHANNELS 3 Xrotation Yrotation Zrotation
				JOINT RightToeBase
				{
					OFFSET -1.181900 -18.539904 15.226099
					CHANNELS 3 Xrotation Yrotation Zrotation
					JOINT RightToe_End
					{
						OFFSET 0.863701 1.402801 16.534700
						CHANNELS 3 Xrotation Yrotation Zrotation
						End Site
						{
							OFFSET 0.000000 16.616566 0.000000
						}
					}
				}
			}
		}
	}
}
MOTION
Frames: 5
Frame Time: 0.033333
148.023010 68.788223 1.875869 14.238034 -58.247423 11.335365 28.095573 2.863100 -9.600709 11.098904 9.002860 1.870754 10.052166 9.869030 0.519401 -11.249204 -11.931175 -2.851515 -36.786972 48.352367 9.307979 -0.000000 0.000000 0.000002 5.642691 -13.738886 11.592830 -22.253514 16.565017 -65.904816 0.980971 -52.090813 0.497962 -37.903807 1.295919 -5.636124 23.335818 6.059115 -19.498549 2.224458 10.473804 5.467029 1.639819 37.061474 20.413750 0.000002 -0.000000 0.000000 -6.100490 19.539416 -73.906465 6.517987 8.159868 -70.582567 5.838580 9.488272 -68.086795 -0.000001 0.000002 -0.000002 -5.351379 7.451042 -69.372565 6.966907 8.602359 -73.522294 5.111155 9.244267 -61.011266 -0.000001 0.000001 0.000005 2.307803 11.481305 -79.268689 5.927147 9.303831 -68.908126 4.574830 7.231923 -58.695326 -0.000000 0.000001 0.000004 5.278394 6.146916 -66.183871 6.414063 7.432263 -77.075106 4.052106 9.746608 -58.395624 0.000002 0.000005 0.000002 -4.663951 10.780434 -11.162754 5.550850 -48.173772 73.677893 4.387248 47.909727 -3.667336 -34.264344 10.246400 -31.165398 9.514103 8.529926 3.944630 5.490590 -27.075865 -11.002270 2.011087 -21.800249 -12.369551 0.000000 0.000001 0.000002 -3.244634 -10.480273 -0.233372 1.927510 -4.703363 40.080677 0.881281 -6.336857 26.949375 -0.000002 -0.000003 -0.000002 0.792254 -8.658103 24.737743 1.327723 -5.449930 30.751428 0.680806 -2.593281 21.158367 -0.000000 0.000001 -0.000006 1.102509 -11.688630 30.090880 3.072903 -6.386655 46.838412 2.603235 -7.283161 42.384175 0.000000 0.000001 -0.000005 -9.428056 -20.454475 34.680303 8.102277 -8.565954 80.253555 3.693822 -8.286998 52.865886 0.000002 0.000000 0.000000 -68.187766 12.002039 -14.685112 15.814415 5.194004 1.041798 46.092189 -2.543838 -9.435121 6.415338 -0.000125 0.000046 -0.000000 -0.000002 0.000002 -4.854862 -26.208646 -0.635367 60.088876 3.198079 6.577760 -61.678384 1.908421 -4.699930 -0.442065 -0.000435 0.185358 -0.000000 -0.000000 -0.000000 
153.688446 70.419083 1.440461 14.963304 -56.583439 11.784445 28.778541 1.570852 -8.842653 10.421368 8.634744 1.632864 9.390007 9.437249 0.414541 -11.092085 -11.554623 -2.710122 -37.498862 48.925741 10.152287 0.000001 0.000000 0.000001 5.553196 -13.619614 11.595098 -21.662816 17.092297 -65.147123 0.985502 -51.691121 0.487347 -38.394577 0.287569 -6.105982 23.335818 6.059117 -19.498544 2.224455 10.473806 5.467029 1.639817 37.061470 20.413745 0.000001 -0.000003 -0.000003 -6.100495 19.539416 -73.906465 6.517985 8.159867 -70.582574 5.838578 9.488267 -68.086789 0.000001 0.000000 -0.000007 -5.351378 7.451041 -69.372572 6.966907 8.602353 -73.522287 5.111159 9.244272 -61.011266 0.000006 0.000001 0.000002 2.307808 11.481307 -79.268689 5.927147 9.303828 -68.908119 4.574832 7.231917 -58.695326 0.000002 0.000001 0.000001 5.278395 6.146914 -66.183877 6.414060 7.432257 -77.075106 4.052102 9.746606 -58.395618 -0.000000 0.000001 0.000003 -4.487629 10.876864 -10.663050 6.232140 -47.146634 74.415416 2.943700 46.896769 -2.483226 -34.752429 12.079479 -30.593606 9.514103 8.529919 3.944629 5.490591 -27.075869 -11.002268 2.011090 -21.800246 -12.369550 0.000000 -0.000001 -0.000000 -3.243366 -10.356959 -1.013509 1.843792 -4.602418 39.174820 0.810234 -6.194779 25.892634 -0.000002 -0.000001 0.000006 0.745089 -8.555120 24.043246 1.263567 -5.340984 29.965556 0.628246 -2.454545 20.259550 -0.000001 -0.000000 -0.000007 1.007161 -11.732196 29.457366 2.986965 -6.305466 46.142166 2.511892 -7.182601 41.594343 0.000000 -0.000001 -0.000003 -9.485156 -20.376312 34.104166 7.997322 -8.547532 79.624187 3.603362 -8.218301 52.165423 0.000000 -0.000001 -0.000001 -68.521407 10.383183 -12.892641 30.223406 7.381092 -0.215011 28.544274 2.751473 -12.435147 5.961921 0.000005 0.000093 -0.000001 -0.000001 0.000001 -14.348972 -25.281930 -3.749931 62.430374 1.477842 5.995879 -56.176868 -0.419941 -4.033540 -0.063738 -0.007125 0.761185 0.000000 -0.000000 0.000000 
158.853790 71.802467 1.231913 15.791145 -55.133478 12.261407 29.208747 0.534482 -8.080122 9.854962 8.254798 1.385400 8.843887 9.004123 0.280648 -10.938416 -11.248717 -2.668610 -38.335007 49.466559 10.911215 0.000001 0.000000 0.000001 5.453755 -13.531494 11.596513 -21.105032 17.575719 -64.465798 0.990287 -51.314385 0.476959 -38.781678 -0.677357 -6.527243 23.335818 6.059114 -19.498547 2.224458 10.473805 5.467028 1.639825 37.061474 20.413753 -0.000003 -0.000004 -0.000003 -6.100488 19.539418 -73.906472 6.517987 8.159869 -70.582567 5.838578 9.488270 -68.086795 0.000001 -0.000000 -0.000000 -5.351383 7.451044 -69.372578 6.966907 8.602356 -73.522294 5.111159 9.244264 -61.011259 -0.000002 0.000001 0.000002 2.307801 11.481309 -79.268689 5.927148 9.303834 -68.908119 4.574837 7.231918 -58.695319 0.000001 -0.000001 0.000004 5.278394 6.146916 -66.183871 6.414062 7.432258 -77.075113 4.052099 9.746606 -58.395618 -0.000000 0.000002 -0.000003 -4.346507 10.956734 -10.264993 7.156158 -46.024738 75.372941 1.975895 45.820526 -1.692446 -35.225898 13.945371 -29.912366 9.514104 8.529928 3.944628 5.490588 -27.075865 -11.002274 2.011088 -21.800248 -12.369550 -0.000000 0.000001 -0.000001 -3.240956 -10.257238 -1.644149 1.776577 -4.519176 38.436162 0.753701 -6.076672 25.021554 -0.000000 -0.000001 0.000001 0.708093 -8.472045 23.485570 1.212907 -5.252260 29.330198 0.587003 -2.340714 19.526794 -0.000000 -0.000001 -0.000007 0.930637 -11.766286 28.951140 2.918698 -6.239644 45.583197 2.439176 -7.100412 40.955945 -0.000003 -0.000000 -0.000003 -9.529897 -20.313801 33.646120 7.913566 -8.532027 79.121342 3.531360 -8.162372 51.602981 -0.000000 -0.000001 0.000004 -68.792880 9.200610 -10.712224 44.232906 9.228042 -1.432149 14.640051 2.161699 -6.869704 4.830111 -0.000053 0.000039 -0.000000 0.000004 -0.000003 -22.557892 -23.799401 -6.822637 63.400835 0.094897 5.638308 -50.238224 -2.482082 -3.004143 -0.071161 -0.006991 0.752385 0.000000 -0.000000 -0.000000 
163.332397 72.784363 1.256682 16.650977 -53.913490 12.651211 29.173073 -0.233281 -7.244644 9.534390 7.888266 1.141012 8.552730 8.602746 0.101669 -10.813812 -11.053932 -2.740282 -39.237429 49.965286 11.485720 -0.000000 0.000000 0.000001 5.353982 -13.473807 11.594130 -20.640458 18.058091 -63.901447 0.995200 -50.944195 0.466860 -39.043014 -1.509469 -6.899549 23.335816 6.059117 -19.498549 2.224461 10.473804 5.467029 1.639818 37.061477 20.413750 0.000001 -0.000004 -0.000003 -6.100496 19.539414 -73.906472 6.517989 8.159866 -70.582574 5.838579 9.488262 -68.086795 -0.000001 0.000001 0.000001 -5.351382 7.451042 -69.372572 6.966904 8.602354 -73.522294 5.111155 9.244268 -61.011259 0.000001 -0.000002 0.000005 2.307802 11.481306 -79.268689 5.927142 9.303830 -68.908126 4.574830 7.231921 -58.695319 0.000001 0.000001 0.000004 5.278390 6.146912 -66.183871 6.414058 7.432258 -77.075106 4.052101 9.746611 -58.395624 0.000003 0.000001 0.000001 -4.246241 11.014724 -9.984330 8.178151 -44.933639 76.428724 1.545130 44.760122 -1.328550 -35.711668 15.783225 -29.152333 9.514103 8.529921 3.944625 5.490590 -27.075869 -11.002270 2.011087 -21.800246 -12.369550 -0.000001 0.000001 0.000002 -3.238626 -10.185950 -2.094721 1.728911 -4.458785 37.904548 0.713804 -5.990296 24.388866 -0.000001 -0.000003 0.000004 0.682298 -8.412789 23.089366 1.177221 -5.188521 28.876302 0.558236 -2.258434 18.999244 -0.000001 -0.000000 -0.000009 0.873192 -11.791692 28.593161 2.870607 -6.192485 45.186117 2.387772 -7.041167 40.499795 -0.000000 -0.000001 -0.000003 -9.561173 -20.269531 33.323506 7.854453 -8.520634 78.765796 3.480496 -8.122199 51.203353 0.000001 -0.000002 0.000002 -69.153493 8.104781 -7.866762 57.625302 10.298278 -2.269880 5.016661 -0.464865 0.281049 5.065956 -0.019925 1.453625 0.000000 0.000001 0.000001 -29.140780 -22.035196 -9.463017 63.555737 -0.868138 5.451803 -44.663355 -4.262111 -1.825845 -0.094333 -0.006413 0.714723 0.000000 0.000000 -0.000000 
167.869461 73.370560 1.511774 17.481656 -52.936637 12.862775 28.597410 -0.739128 -6.281247 9.524368 7.545343 0.884966 8.583611 8.250273 -0.133529 -10.785900 -11.008348 -2.928939 -40.154074 50.458415 12.080349 -0.000001 -0.000000 -0.000001 5.265617 -13.445822 11.589958 -20.278017 18.583666 -63.378302 0.999979 -50.561076 0.456533 -39.256775 -2.259901 -7.277032 23.335818 6.059115 -19.498547 2.224459 10.473805 5.467024 1.639818 37.061474 20.413753 -0.000000 -0.000004 -0.000003 -6.100488 19.539416 -73.906465 6.517987 8.159867 -70.582567 5.838577 9.488271 -68.086795 0.000002 -0.000002 -0.000001 -5.351379 7.451042 -69.372572 6.966907 8.602357 -73.522294 5.111159 9.244267 -61.011259 0.000003 -0.000000 -0.000000 2.307804 11.481306 -79.268682 5.927145 9.303831 -68.908119 4.574831 7.231917 -58.695319 -0.000000 -0.000001 0.000004 5.278398 6.146911 -66.183871 6.414064 7.432260 -77.075113 4.052102 9.746611 -58.395624 -0.000001 0.000005 0.000002 -4.193235 11.045843 -9.836437 8.966800 -44.108132 77.378277 1.795524 43.763751 -1.480672 -36.214964 17.532559 -28.344693 9.514104 8.529928 3.944628 5.490589 -27.075864 -11.002270 2.011089 -21.800246 -12.369547 -0.000000 -0.000001 0.000002 -3.237152 -10.148093 -2.334679 1.703656 -4.426124 37.619582 0.692543 -5.943434 24.047180 -0.000002 -0.000003 -0.000002 0.668817 -8.381348 22.879493 1.158430 -5.154463 28.634455 0.539122 -2.215639 18.716484 0.000000 0.000002 -0.000001 0.840706 -11.806002 28.404324 2.845216 -6.167358 44.975611 2.360628 -7.009405 40.256824 -0.000001 -0.000002 -0.000003 -9.577417 -20.246158 33.153851 7.824844 -8.514728 78.578075 3.453681 -8.100755 50.991638 -0.000002 0.000001 -0.000001 -69.072426 6.514862 -4.193126 69.664753 10.484805 -2.754477 -0.289406 -3.084117 6.865572 5.045488 -0.033854 1.907188 -0.000002 0.000003 -0.000001 -35.258482 -20.048289 -12.137009 63.456385 -1.236529 5.389607 -38.936586 -5.918889 -0.622794 -0.117133 -0.005800 0.676508 -0.000000 -0.000000 -0.000000 
